<svg width="68" height="41" viewBox="0 0 68 41" fill="none" xmlns="http://www.w3.org/2000/svg">
<path d="M22.912 30.376C23.712 30.728 24.112 31.32 24.112 32.152C24.112 32.792 23.888 33.32 23.44 33.736C23.024 34.12 22.496 34.312 21.856 34.312C21.408 34.312 21.008 34.232 20.656 34.072L2.848 26.488C2.176 26.2 1.648 25.784 1.264 25.24C0.88 24.664 0.688 24.008 0.688 23.272C0.688 22.568 0.88 21.928 1.264 21.352C1.648 20.776 2.176 20.36 2.848 20.104L20.656 12.472C21.072 12.312 21.472 12.232 21.856 12.232C22.496 12.232 23.024 12.44 23.44 12.856C23.888 13.24 24.112 13.752 24.112 14.392C24.112 15.224 23.712 15.816 22.912 16.168L5.968 23.272L22.912 30.376ZM31.0053 38.632C30.8133 39.24 30.5093 39.688 30.0933 39.976C29.6773 40.264 29.2133 40.408 28.7013 40.408C28.0613 40.408 27.4853 40.184 26.9733 39.736C26.4932 39.32 26.2532 38.776 26.2532 38.104C26.2532 37.816 26.3012 37.528 26.3972 37.24L37.5333 2.344C37.7253 1.736 38.0293 1.288 38.4453 0.999997C38.8613 0.711997 39.3253 0.567997 39.8373 0.567997C40.4773 0.567997 41.0373 0.791997 41.5173 1.24C42.0293 1.656 42.2853 2.2 42.2853 2.872C42.2853 3.16 42.2373 3.448 42.1413 3.736L31.0053 38.632ZM65.7801 20.104C66.4521 20.36 66.9801 20.776 67.3641 21.352C67.7481 21.928 67.9401 22.568 67.9401 23.272C67.9401 24.008 67.7481 24.664 67.3641 25.24C66.9801 25.784 66.4521 26.2 65.7801 26.488L47.9721 34.072C47.6201 34.232 47.2201 34.312 46.7721 34.312C46.1321 34.312 45.5881 34.12 45.1401 33.736C44.7241 33.32 44.5161 32.792 44.5161 32.152C44.5161 31.32 44.9161 30.728 45.7161 30.376L62.6601 23.272L45.7161 16.168C44.9161 15.816 44.5161 15.224 44.5161 14.392C44.5161 13.752 44.7241 13.24 45.1401 12.856C45.5881 12.44 46.1321 12.232 46.7721 12.232C47.1561 12.232 47.5561 12.312 47.9721 12.472L65.7801 20.104Z" fill="#1C1C1C"/>
</svg>
